<svg xmlns="http://www.w3.org/2000/svg" width="1024" height="1024" viewBox="0 0 1024 1024" role="img" aria-label="Immersive BOP_Harvest logo">
  <defs>
    <linearGradient id="bg" x1="0" y1="0" x2="1" y2="1">
      <stop offset="0%" stop-color="#204d2d"/>
      <stop offset="100%" stop-color="#121716"/>
    </linearGradient>
    <linearGradient id="leaf" x1="0" y1="0" x2="1" y2="1">
      <stop offset="0%" stop-color="#85be69"/>
      <stop offset="100%" stop-color="#52914b"/>
    </linearGradient>
  </defs>
  <g id="gear" fill="#b2653a" stroke="#dd9253" stroke-width="12">
    <path d="M512 72 L549 141 L624 105 L635 187 L718 176 L700 257 L778 285 L729 350 L789 407 L716 443 L748 520 L666 528 L664 612 L588 579 L542 649 L493 580 L420 623 L414 539 L331 533 L364 456 L291 421 L350 364 L303 297 L382 271 L365 190 L448 200 Z"/>
  </g>
  <circle cx="512" cy="512" r="335" fill="url(#bg)" stroke="#ebe1c2" stroke-width="18"/>
  <circle cx="512" cy="512" r="265" fill="#183724" stroke="#688f4d" stroke-width="10"/>
  <path d="M294 548 C380 305 615 266 737 390 C605 421 508 517 294 548 Z" fill="url(#leaf)"/>
  <path d="M374 610 C475 503 564 438 682 372" fill="none" stroke="#204d2d" stroke-width="30" stroke-linecap="round"/>
  <g id="straw" stroke="#c6a86f" stroke-width="18" stroke-linecap="round">
    <path d="M430 704 L400 342"/>
    <path d="M512 720 L512 330"/>
    <path d="M594 704 L632 342"/>
  </g>
  <g fill="#ebe1c2">
    <ellipse cx="399" cy="334" rx="28" ry="40"/>
    <ellipse cx="512" cy="322" rx="28" ry="40"/>
    <ellipse cx="632" cy="334" rx="28" ry="40"/>
  </g>
  <g fill="none" stroke="#ebe1c2" stroke-width="22" stroke-linecap="round">
    <rect x="315" y="676" width="160" height="82" rx="42"/>
    <rect x="549" y="676" width="160" height="82" rx="42"/>
    <path d="M475 717 L549 717"/>
  </g>
</svg>
