<svg xmlns="http://www.w3.org/2000/svg" width="1800" height="600" viewBox="0 0 1800 600" role="img" aria-label="Immersive BOP_Harvest banner">
  <defs>
    <linearGradient id="sky" x1="0" y1="0" x2="1" y2="1">
      <stop offset="0%" stop-color="#204d2d"/>
      <stop offset="58%" stop-color="#183724"/>
      <stop offset="100%" stop-color="#121716"/>
    </linearGradient>
    <linearGradient id="copper" x1="0" y1="0" x2="1" y2="1">
      <stop offset="0%" stop-color="#dd9253"/>
      <stop offset="100%" stop-color="#8d4a2c"/>
    </linearGradient>
    <linearGradient id="leaf" x1="0" y1="0" x2="1" y2="1">
      <stop offset="0%" stop-color="#85be69"/>
      <stop offset="100%" stop-color="#52914b"/>
    </linearGradient>
    <pattern id="grid" width="80" height="80" patternUnits="userSpaceOnUse">
      <path d="M80 0H0V80" fill="none" stroke="#ebe1c2" stroke-opacity=".08" stroke-width="2"/>
    </pattern>
  </defs>

  <rect width="1800" height="600" fill="url(#sky)"/>
  <rect width="1800" height="600" fill="url(#grid)"/>
  <path d="M0 438 C260 372 469 437 730 377 C998 316 1162 382 1397 335 C1578 299 1694 313 1800 270 L1800 600 L0 600 Z" fill="#121716" fill-opacity=".52"/>
  <path d="M0 484 C310 436 528 495 804 441 C1076 389 1288 442 1534 392 C1645 369 1734 358 1800 353 L1800 600 L0 600 Z" fill="#0d1211" fill-opacity=".68"/>

  <g transform="translate(118 80)">
    <g fill="url(#copper)" stroke="#dd9253" stroke-width="6" opacity=".95">
      <path d="M208 0 L231 48 L284 25 L290 84 L349 79 L334 136 L389 158 L351 204 L394 248 L341 273 L363 329 L305 334 L302 394 L249 369 L217 419 L183 370 L132 400 L128 341 L70 337 L93 282 L42 258 L84 215 L50 166 L106 148 L94 91 L153 98 Z"/>
    </g>
    <circle cx="208" cy="236" r="172" fill="#183724" stroke="#ebe1c2" stroke-width="10"/>
    <circle cx="208" cy="236" r="132" fill="#204d2d" stroke="#688f4d" stroke-width="6"/>
    <path d="M86 251 C133 120 269 98 336 165 C265 181 209 235 86 251 Z" fill="url(#leaf)"/>
    <path d="M130 290 C187 230 237 195 304 158" fill="none" stroke="#204d2d" stroke-width="17" stroke-linecap="round"/>
    <g stroke="#c6a86f" stroke-width="10" stroke-linecap="round">
      <path d="M158 347 L141 150"/>
      <path d="M208 356 L208 145"/>
      <path d="M258 347 L280 150"/>
    </g>
    <g fill="#ebe1c2">
      <ellipse cx="141" cy="146" rx="16" ry="23"/>
      <ellipse cx="208" cy="139" rx="16" ry="23"/>
      <ellipse cx="280" cy="146" rx="16" ry="23"/>
    </g>
  </g>

  <g transform="translate(540 178)">
    <text x="0" y="0" fill="#ebe1c2" font-family="Segoe UI, Inter, Arial, sans-serif" font-size="84" font-weight="800">Immersive BOP_Harvest</text>
    <text x="3" y="74" fill="#c6a86f" font-family="Segoe UI, Inter, Arial, sans-serif" font-size="34" font-weight="600">Botanical compatibility for Biomes O' Plenty, Farmer's Delight, and Immersive Engineering</text>
    <g transform="translate(0 126)" fill="none" stroke-linecap="round" stroke-width="10">
      <path d="M0 0 H280" stroke="#85be69"/>
      <path d="M310 0 H510" stroke="#dd9253"/>
      <path d="M540 0 H680" stroke="#c6a86f"/>
    </g>
    <text x="3" y="184" fill="#ebe1c2" opacity=".86" font-family="Segoe UI, Inter, Arial, sans-serif" font-size="28">No copied dependency assets. No new blocks or items. Data-driven recipes, tags, and harvest links.</text>
  </g>

  <g transform="translate(1420 104)" opacity=".42" fill="none" stroke="#dd9253" stroke-width="16">
    <circle cx="120" cy="120" r="82"/>
    <circle cx="120" cy="120" r="42"/>
    <path d="M120 13 V0 M120 240 V227 M13 120 H0 M240 120 H227 M44 44 L32 32 M196 196 L208 208 M196 44 L208 32 M44 196 L32 208"/>
  </g>
</svg>
